<mxfile host="app.diagrams.net" agent="Mozilla/5.0 (Windows NT 10.0; Win64; x64) AppleWebKit/537.36 (KHTML, like Gecko) Chrome/139.0.0.0 Safari/537.36" version="28.0.9">
  <diagram name="Page-1" id="04jGO0-amFkEOmsSNW9V">
    <mxGraphModel grid="1" page="1" gridSize="10" guides="1" tooltips="1" connect="1" arrows="1" fold="1" pageScale="1" pageWidth="850" pageHeight="1100" math="0" shadow="0">
      <root>
        <mxCell id="0" />
        <mxCell id="1" parent="0" />
        <mxCell id="QE6S--A0FOJKjm3L5Gbl-1" value="" style="rounded=1;whiteSpace=wrap;html=1;" vertex="1" parent="1">
          <mxGeometry x="40" y="400" width="120" height="360" as="geometry" />
        </mxCell>
        <mxCell id="QE6S--A0FOJKjm3L5Gbl-2" value="" style="rounded=1;whiteSpace=wrap;html=1;" vertex="1" parent="1">
          <mxGeometry x="230" y="400" width="140" height="360" as="geometry" />
        </mxCell>
        <mxCell id="QE6S--A0FOJKjm3L5Gbl-3" value="" style="rounded=1;whiteSpace=wrap;html=1;fillColor=none;" vertex="1" parent="1">
          <mxGeometry x="425" y="400" width="140" height="360" as="geometry" />
        </mxCell>
        <mxCell id="QE6S--A0FOJKjm3L5Gbl-4" value="" style="rounded=1;whiteSpace=wrap;html=1;" vertex="1" parent="1">
          <mxGeometry x="680" y="400" width="140" height="360" as="geometry" />
        </mxCell>
        <mxCell id="S4kGyZN1AXlKYQbmgQwc-26" style="edgeStyle=orthogonalEdgeStyle;rounded=0;orthogonalLoop=1;jettySize=auto;html=1;entryX=0;entryY=0.5;entryDx=0;entryDy=0;" edge="1" parent="1" source="QE6S--A0FOJKjm3L5Gbl-5" target="QE6S--A0FOJKjm3L5Gbl-9">
          <mxGeometry relative="1" as="geometry" />
        </mxCell>
        <mxCell id="S4kGyZN1AXlKYQbmgQwc-27" style="edgeStyle=orthogonalEdgeStyle;rounded=0;orthogonalLoop=1;jettySize=auto;html=1;entryX=0;entryY=0.5;entryDx=0;entryDy=0;" edge="1" parent="1" source="QE6S--A0FOJKjm3L5Gbl-5" target="QE6S--A0FOJKjm3L5Gbl-11">
          <mxGeometry relative="1" as="geometry" />
        </mxCell>
        <mxCell id="QE6S--A0FOJKjm3L5Gbl-5" value="" style="image;aspect=fixed;html=1;points=[];align=center;fontSize=12;image=img/lib/azure2/general/Folder_Blank.svg;" vertex="1" parent="1">
          <mxGeometry x="70" y="486" width="49.28" height="40" as="geometry" />
        </mxCell>
        <mxCell id="S4kGyZN1AXlKYQbmgQwc-31" style="edgeStyle=orthogonalEdgeStyle;rounded=0;orthogonalLoop=1;jettySize=auto;html=1;entryX=0;entryY=0.5;entryDx=0;entryDy=0;" edge="1" parent="1" source="QE6S--A0FOJKjm3L5Gbl-6" target="QE6S--A0FOJKjm3L5Gbl-15">
          <mxGeometry relative="1" as="geometry" />
        </mxCell>
        <mxCell id="S4kGyZN1AXlKYQbmgQwc-33" style="edgeStyle=orthogonalEdgeStyle;rounded=0;orthogonalLoop=1;jettySize=auto;html=1;entryX=0;entryY=0.5;entryDx=0;entryDy=0;" edge="1" parent="1" source="QE6S--A0FOJKjm3L5Gbl-6" target="QE6S--A0FOJKjm3L5Gbl-17">
          <mxGeometry relative="1" as="geometry" />
        </mxCell>
        <mxCell id="QE6S--A0FOJKjm3L5Gbl-6" value="" style="image;aspect=fixed;html=1;points=[];align=center;fontSize=12;image=img/lib/azure2/general/Folder_Blank.svg;" vertex="1" parent="1">
          <mxGeometry x="70" y="640" width="49.28" height="40" as="geometry" />
        </mxCell>
        <mxCell id="QE6S--A0FOJKjm3L5Gbl-7" value="CRM" style="text;html=1;align=center;verticalAlign=middle;whiteSpace=wrap;rounded=0;fontStyle=1" vertex="1" parent="1">
          <mxGeometry x="70" y="526" width="50" height="30" as="geometry" />
        </mxCell>
        <mxCell id="QE6S--A0FOJKjm3L5Gbl-8" value="ERP" style="text;html=1;align=center;verticalAlign=middle;whiteSpace=wrap;rounded=0;fontStyle=1" vertex="1" parent="1">
          <mxGeometry x="69.28" y="680" width="50" height="30" as="geometry" />
        </mxCell>
        <mxCell id="S4kGyZN1AXlKYQbmgQwc-19" style="edgeStyle=orthogonalEdgeStyle;rounded=0;orthogonalLoop=1;jettySize=auto;html=1;exitX=1;exitY=0.5;exitDx=0;exitDy=0;entryX=0;entryY=0.5;entryDx=0;entryDy=0;flowAnimation=1;" edge="1" parent="1" source="QE6S--A0FOJKjm3L5Gbl-9" target="S4kGyZN1AXlKYQbmgQwc-8">
          <mxGeometry relative="1" as="geometry" />
        </mxCell>
        <mxCell id="QE6S--A0FOJKjm3L5Gbl-9" value="crm_cust_info" style="rounded=1;whiteSpace=wrap;html=1;fillColor=#FFB366;strokeColor=#d79b00;" vertex="1" parent="1">
          <mxGeometry x="240" y="450" width="120" height="30" as="geometry" />
        </mxCell>
        <mxCell id="S4kGyZN1AXlKYQbmgQwc-20" style="edgeStyle=orthogonalEdgeStyle;rounded=0;orthogonalLoop=1;jettySize=auto;html=1;exitX=1;exitY=0.5;exitDx=0;exitDy=0;entryX=0;entryY=0.5;entryDx=0;entryDy=0;flowAnimation=1;" edge="1" parent="1" source="QE6S--A0FOJKjm3L5Gbl-10" target="S4kGyZN1AXlKYQbmgQwc-9">
          <mxGeometry relative="1" as="geometry" />
        </mxCell>
        <mxCell id="QE6S--A0FOJKjm3L5Gbl-10" value="crm_prd_info" style="rounded=1;whiteSpace=wrap;html=1;fillColor=#FFB366;strokeColor=#d79b00;" vertex="1" parent="1">
          <mxGeometry x="240" y="486" width="120" height="30" as="geometry" />
        </mxCell>
        <mxCell id="S4kGyZN1AXlKYQbmgQwc-21" style="edgeStyle=orthogonalEdgeStyle;rounded=0;orthogonalLoop=1;jettySize=auto;html=1;exitX=1;exitY=0.5;exitDx=0;exitDy=0;entryX=0;entryY=0.5;entryDx=0;entryDy=0;flowAnimation=1;" edge="1" parent="1" source="QE6S--A0FOJKjm3L5Gbl-11" target="S4kGyZN1AXlKYQbmgQwc-10">
          <mxGeometry relative="1" as="geometry" />
        </mxCell>
        <mxCell id="QE6S--A0FOJKjm3L5Gbl-11" value="crm_sales_details" style="rounded=1;whiteSpace=wrap;html=1;fillColor=#FFB366;strokeColor=#d79b00;" vertex="1" parent="1">
          <mxGeometry x="240" y="523" width="120" height="30" as="geometry" />
        </mxCell>
        <mxCell id="S4kGyZN1AXlKYQbmgQwc-22" style="edgeStyle=orthogonalEdgeStyle;rounded=0;orthogonalLoop=1;jettySize=auto;html=1;exitX=1;exitY=0.5;exitDx=0;exitDy=0;entryX=0;entryY=0.5;entryDx=0;entryDy=0;flowAnimation=1;" edge="1" parent="1" source="QE6S--A0FOJKjm3L5Gbl-15" target="S4kGyZN1AXlKYQbmgQwc-11">
          <mxGeometry relative="1" as="geometry" />
        </mxCell>
        <mxCell id="QE6S--A0FOJKjm3L5Gbl-15" value="erp_cust_az12" style="rounded=1;whiteSpace=wrap;html=1;fillColor=#FFB366;strokeColor=#d79b00;" vertex="1" parent="1">
          <mxGeometry x="240" y="613" width="120" height="30" as="geometry" />
        </mxCell>
        <mxCell id="S4kGyZN1AXlKYQbmgQwc-23" style="edgeStyle=orthogonalEdgeStyle;rounded=0;orthogonalLoop=1;jettySize=auto;html=1;exitX=1;exitY=0.5;exitDx=0;exitDy=0;entryX=0;entryY=0.5;entryDx=0;entryDy=0;flowAnimation=1;" edge="1" parent="1" source="QE6S--A0FOJKjm3L5Gbl-16" target="S4kGyZN1AXlKYQbmgQwc-12">
          <mxGeometry relative="1" as="geometry" />
        </mxCell>
        <mxCell id="QE6S--A0FOJKjm3L5Gbl-16" value="erp_loc_a101" style="rounded=1;whiteSpace=wrap;html=1;fillColor=#FFB366;strokeColor=#d79b00;" vertex="1" parent="1">
          <mxGeometry x="240" y="650" width="120" height="30" as="geometry" />
        </mxCell>
        <mxCell id="S4kGyZN1AXlKYQbmgQwc-24" style="edgeStyle=orthogonalEdgeStyle;rounded=0;orthogonalLoop=1;jettySize=auto;html=1;exitX=1;exitY=0.5;exitDx=0;exitDy=0;entryX=0;entryY=0.5;entryDx=0;entryDy=0;flowAnimation=1;" edge="1" parent="1" source="QE6S--A0FOJKjm3L5Gbl-17" target="S4kGyZN1AXlKYQbmgQwc-13">
          <mxGeometry relative="1" as="geometry" />
        </mxCell>
        <mxCell id="QE6S--A0FOJKjm3L5Gbl-17" value="erp_px_cat_g1v2" style="rounded=1;whiteSpace=wrap;html=1;fillColor=#FFB366;strokeColor=#d79b00;" vertex="1" parent="1">
          <mxGeometry x="240" y="690" width="120" height="30" as="geometry" />
        </mxCell>
        <mxCell id="QE6S--A0FOJKjm3L5Gbl-36" value="&lt;b&gt;BRONZE LAYER&lt;/b&gt;" style="rounded=1;whiteSpace=wrap;html=1;fillColor=#FFB366;strokeColor=#d79b00;" vertex="1" parent="1">
          <mxGeometry x="240" y="360" width="120" height="30" as="geometry" />
        </mxCell>
        <mxCell id="QE6S--A0FOJKjm3L5Gbl-37" value="&lt;b&gt;SILVER LAYER&lt;/b&gt;" style="rounded=1;whiteSpace=wrap;html=1;fillColor=#E6E6E6;strokeColor=#d79b00;" vertex="1" parent="1">
          <mxGeometry x="435" y="360" width="120" height="30" as="geometry" />
        </mxCell>
        <mxCell id="QE6S--A0FOJKjm3L5Gbl-38" value="&lt;b&gt;GOLD LAYER&lt;/b&gt;" style="rounded=1;whiteSpace=wrap;html=1;fillColor=#ffe6cc;strokeColor=#d79b00;" vertex="1" parent="1">
          <mxGeometry x="690" y="360" width="120" height="30" as="geometry" />
        </mxCell>
        <mxCell id="S4kGyZN1AXlKYQbmgQwc-8" value="crm_cust_info" style="rounded=1;whiteSpace=wrap;html=1;fillColor=#E6E6E6;strokeColor=#d79b00;" vertex="1" parent="1">
          <mxGeometry x="435" y="450" width="120" height="30" as="geometry" />
        </mxCell>
        <mxCell id="S4kGyZN1AXlKYQbmgQwc-9" value="crm_prd_info" style="rounded=1;whiteSpace=wrap;html=1;fillColor=#E6E6E6;strokeColor=#d79b00;" vertex="1" parent="1">
          <mxGeometry x="435" y="486" width="120" height="30" as="geometry" />
        </mxCell>
        <mxCell id="S4kGyZN1AXlKYQbmgQwc-10" value="crm_sales_details" style="rounded=1;whiteSpace=wrap;html=1;fillColor=#E6E6E6;strokeColor=#d79b00;" vertex="1" parent="1">
          <mxGeometry x="435" y="523" width="120" height="30" as="geometry" />
        </mxCell>
        <mxCell id="S4kGyZN1AXlKYQbmgQwc-11" value="erp_cust_az12" style="rounded=1;whiteSpace=wrap;html=1;fillColor=#E6E6E6;strokeColor=#d79b00;" vertex="1" parent="1">
          <mxGeometry x="435" y="613" width="120" height="30" as="geometry" />
        </mxCell>
        <mxCell id="S4kGyZN1AXlKYQbmgQwc-12" value="erp_loc_a101" style="rounded=1;whiteSpace=wrap;html=1;fillColor=#E6E6E6;strokeColor=#d79b00;" vertex="1" parent="1">
          <mxGeometry x="435" y="650" width="120" height="30" as="geometry" />
        </mxCell>
        <mxCell id="S4kGyZN1AXlKYQbmgQwc-13" value="erp_px_cat_g1v2" style="rounded=1;whiteSpace=wrap;html=1;fillColor=#E6E6E6;strokeColor=#d79b00;" vertex="1" parent="1">
          <mxGeometry x="435" y="690" width="120" height="30" as="geometry" />
        </mxCell>
        <mxCell id="S4kGyZN1AXlKYQbmgQwc-30" style="edgeStyle=orthogonalEdgeStyle;rounded=0;orthogonalLoop=1;jettySize=auto;html=1;entryX=0.071;entryY=0.294;entryDx=0;entryDy=0;entryPerimeter=0;" edge="1" parent="1" source="QE6S--A0FOJKjm3L5Gbl-5" target="QE6S--A0FOJKjm3L5Gbl-2">
          <mxGeometry relative="1" as="geometry" />
        </mxCell>
        <mxCell id="S4kGyZN1AXlKYQbmgQwc-34" style="edgeStyle=orthogonalEdgeStyle;rounded=0;orthogonalLoop=1;jettySize=auto;html=1;" edge="1" parent="1" source="QE6S--A0FOJKjm3L5Gbl-6">
          <mxGeometry relative="1" as="geometry">
            <mxPoint x="240" y="660" as="targetPoint" />
            <Array as="points">
              <mxPoint x="180" y="660" />
              <mxPoint x="180" y="660" />
            </Array>
          </mxGeometry>
        </mxCell>
        <mxCell id="S4kGyZN1AXlKYQbmgQwc-35" value="dim_sales" style="rounded=1;whiteSpace=wrap;html=1;fillColor=#f8cecc;strokeColor=#b85450;" vertex="1" parent="1">
          <mxGeometry x="690" y="453" width="120" height="30" as="geometry" />
        </mxCell>
        <mxCell id="S4kGyZN1AXlKYQbmgQwc-36" value="fact_customers" style="rounded=1;whiteSpace=wrap;html=1;fillColor=#f8cecc;strokeColor=#b85450;" vertex="1" parent="1">
          <mxGeometry x="690" y="570" width="120" height="30" as="geometry" />
        </mxCell>
        <mxCell id="S4kGyZN1AXlKYQbmgQwc-37" value="fact_products" style="rounded=1;whiteSpace=wrap;html=1;fillColor=#f8cecc;strokeColor=#b85450;" vertex="1" parent="1">
          <mxGeometry x="690" y="670" width="120" height="30" as="geometry" />
        </mxCell>
        <mxCell id="S4kGyZN1AXlKYQbmgQwc-43" value="" style="endArrow=classic;html=1;rounded=0;entryX=0;entryY=0.5;entryDx=0;entryDy=0;shadow=0;flowAnimation=1;" edge="1" parent="1" target="S4kGyZN1AXlKYQbmgQwc-36">
          <mxGeometry width="50" height="50" relative="1" as="geometry">
            <mxPoint x="555" y="470" as="sourcePoint" />
            <mxPoint x="605" y="420" as="targetPoint" />
          </mxGeometry>
        </mxCell>
        <mxCell id="S4kGyZN1AXlKYQbmgQwc-44" value="" style="endArrow=classic;html=1;rounded=0;exitX=1;exitY=0.5;exitDx=0;exitDy=0;flowAnimation=1;" edge="1" parent="1" source="S4kGyZN1AXlKYQbmgQwc-11">
          <mxGeometry width="50" height="50" relative="1" as="geometry">
            <mxPoint x="565" y="480" as="sourcePoint" />
            <mxPoint x="690" y="580" as="targetPoint" />
          </mxGeometry>
        </mxCell>
        <mxCell id="S4kGyZN1AXlKYQbmgQwc-45" value="" style="endArrow=classic;html=1;rounded=0;exitX=1;exitY=0.5;exitDx=0;exitDy=0;entryX=0;entryY=0.25;entryDx=0;entryDy=0;flowAnimation=1;" edge="1" parent="1" source="S4kGyZN1AXlKYQbmgQwc-12" target="S4kGyZN1AXlKYQbmgQwc-36">
          <mxGeometry width="50" height="50" relative="1" as="geometry">
            <mxPoint x="565" y="638" as="sourcePoint" />
            <mxPoint x="700" y="590" as="targetPoint" />
          </mxGeometry>
        </mxCell>
        <mxCell id="S4kGyZN1AXlKYQbmgQwc-46" value="" style="endArrow=classic;html=1;rounded=0;entryX=0;entryY=0.5;entryDx=0;entryDy=0;shadow=0;exitX=1;exitY=0.5;exitDx=0;exitDy=0;flowAnimation=1;" edge="1" parent="1" source="S4kGyZN1AXlKYQbmgQwc-10" target="S4kGyZN1AXlKYQbmgQwc-35">
          <mxGeometry width="50" height="50" relative="1" as="geometry">
            <mxPoint x="565" y="480" as="sourcePoint" />
            <mxPoint x="700" y="595" as="targetPoint" />
          </mxGeometry>
        </mxCell>
        <mxCell id="S4kGyZN1AXlKYQbmgQwc-47" value="" style="endArrow=classic;html=1;rounded=0;entryX=0;entryY=0.5;entryDx=0;entryDy=0;shadow=0;exitX=1;exitY=0.5;exitDx=0;exitDy=0;flowAnimation=1;" edge="1" parent="1" source="S4kGyZN1AXlKYQbmgQwc-9" target="S4kGyZN1AXlKYQbmgQwc-37">
          <mxGeometry width="50" height="50" relative="1" as="geometry">
            <mxPoint x="565" y="548" as="sourcePoint" />
            <mxPoint x="700" y="478" as="targetPoint" />
          </mxGeometry>
        </mxCell>
        <mxCell id="S4kGyZN1AXlKYQbmgQwc-48" value="" style="endArrow=classic;html=1;rounded=0;exitX=1;exitY=0.5;exitDx=0;exitDy=0;entryX=0;entryY=0.25;entryDx=0;entryDy=0;flowAnimation=1;" edge="1" parent="1" source="S4kGyZN1AXlKYQbmgQwc-13" target="S4kGyZN1AXlKYQbmgQwc-37">
          <mxGeometry width="50" height="50" relative="1" as="geometry">
            <mxPoint x="565" y="675" as="sourcePoint" />
            <mxPoint x="700" y="588" as="targetPoint" />
          </mxGeometry>
        </mxCell>
        <mxCell id="S4kGyZN1AXlKYQbmgQwc-49" value="Data Flow Diagram" style="text;html=1;align=center;verticalAlign=middle;whiteSpace=wrap;rounded=0;fontStyle=1;fontSize=30;" vertex="1" parent="1">
          <mxGeometry x="10" y="233" width="290" height="70" as="geometry" />
        </mxCell>
      </root>
    </mxGraphModel>
  </diagram>
</mxfile>
